# xmcd CD database file
#
# Track frame offsets:
#	150
#	15736
#	37708
#	64897
#	85522
#	98750
#	127976
#	140098
#	154756
#	168752
#	181835
#	194710
#	208486
#	223154
#	246854
#	279399
#	292738
#	307771
#
# Disc length: 4285 seconds
#
# Revision: 0
# Processed by: cddbd v1.5.1PL0 Copyright (c) Steve Scherf et al.
# Submitted via: CDex 1.51
#
DISCID=f910bb12
DTITLE=Diverse - Swing Time - The best Originals (3)
DYEAR=1900
DGENRE=Jazz
TTITLE0=Glenn Miller - Chattanooga Choo Choo
TTITLE1=Lionel Hampton - I found a new baby
TTITLE2=Buddy Rich - My funny Valentine
TTITLE3=Sonny Stitt - Yestaerdays
TTITLE4=Sidney Bechet - Shake it and Break it
TTITLE5=Dexter Gordon - Seven come eleven
TTITLE6=Coleman Hawkins - On the bean
TTITLE7=Andrew Sisters - Bei mir bist du schön
TTITLE8=Duke Ellington - Frankie and Johnnie
TTITLE9=Django Reinhardt Begin the Beguine
TTITLE10=Gene Krupa - Sierra Sue
TTITLE11=Count Basie - Daggin around
TTITLE12=Benny Goodman - Smoke dreams
TTITLE13=Charles Mingus - Peggys blue Sky lights
TTITLE14=Stephane Grapelli - Caravan
TTITLE15=Lionel Hampton - Muskat Ramble
TTITLE16=Glenn Miller - American Petrol
TTITLE17=Sidney Bechet - Wild Cat Blues
EXTD=
EXTT0=
EXTT1=
EXTT2=
EXTT3=
EXTT4=
EXTT5=
EXTT6=
EXTT7=
EXTT8=
EXTT9=
EXTT10=
EXTT11=
EXTT12=
EXTT13=
EXTT14=
EXTT15=
EXTT16=
EXTT17=
PLAYORDER=
